# xmcd
# Copyright (C) 1995-1998 Ti Kan
#
# Track frame offsets:
#       150
#       22035
#       41453
#       62023
#       84946
#       113272
#       129888
#       154780
#       169670
#       188720
#       215093
#       244399
#       266264
#       274123
#
# Disc length: 3876 seconds
#
# Revision: 0
# Processed by: cddbd v1.5.2PL0 Copyright (c) Steve Scherf et al.
# Submitted via: CD-Import v1.0
#
DISCID=b30f220e
DTITLE=Aydin Yildrim - 120224 Denge Roj
DYEAR=1900
DGENRE=
TTITLE0=120224 Denge Roj 1
TTITLE1=120224 Denge Roj 2
TTITLE2=120224 Denge Roj 3
TTITLE3=120224 Denge Roj 4
TTITLE4=120224 Denge Roj 5
TTITLE5=120224 Denge Roj 6
TTITLE6=120224 Denge Roj 7
TTITLE7=120224 Denge Roj 8
TTITLE8=120224 Denge Roj 9
TTITLE9=120224 Denge Roj 10
TTITLE10=120224 Denge Roj 11
TTITLE11=120224 Denge Roj 12
TTITLE12=120224 Denge Roj 13
TTITLE13=120224 Denge Roj 14
EXTD=
EXTT0=
EXTT1=
EXTT2=
EXTT3=
EXTT4=
EXTT5=
EXTT6=
EXTT7=
EXTT8=
EXTT9=
EXTT10=
EXTT11=
EXTT12=
EXTT13=
PLAYORDER=
